<svg width="995" height="837" viewBox="0 0 995 837" fill="none" xmlns="http://www.w3.org/2000/svg">
<path d="M23.4449 782.798C12.564 780.898 2.20238 788.177 0.301649 799.058C-1.59909 809.939 5.6808 820.301 16.5617 822.202L20.0033 802.5L23.4449 782.798ZM861.645 5.85786C853.835 -1.95262 841.172 -1.95262 833.361 5.85786L706.082 133.137C698.271 140.948 698.271 153.611 706.082 161.421C713.892 169.232 726.556 169.232 734.366 161.421L847.503 48.2843L960.64 161.421C968.451 169.232 981.114 169.232 988.925 161.421C996.735 153.611 996.735 140.948 988.925 133.137L861.645 5.85786ZM20.0033 802.5L16.5617 822.202C164.361 848.02 376.914 848.583 553.305 740.817C731.298 632.073 867.503 416.191 867.503 20H847.503H827.503C827.503 406.309 695.459 607.094 532.451 706.683C367.842 807.251 166.646 807.813 23.4449 782.798L20.0033 802.5Z" fill="white"/>
</svg>
